<?xml version="1.0" encoding="utf-8"?>
<!-- Generator: Adobe Illustrator 27.0.0, SVG Export Plug-In . SVG Version: 6.00 Build 0)  -->
<svg version="1.1" id="Layer_1" xmlns="http://www.w3.org/2000/svg" xmlns:xlink="http://www.w3.org/1999/xlink" x="0px" y="0px"
	 viewBox="0 0 387.17 219.5" style="enable-background:new 0 0 387.17 219.5;" xml:space="preserve">
<style type="text/css">
	.st0{fill:#222222;}
	.st1{fill:#1BB24B;}
</style>
<path class="st0" d="M1.8,130.61c1.85-6.9,4.88-13.91,8.23-20.18c3.17-5.96,10.45-8.57,16.42-8.57c5.65,0,10.15,2.3,9.09,6.27
	c-0.11,0.42-0.33,0.84-0.57,1.36c-2.46,4.5-4.18,8.57-5.19,12.34c-2.52,9.41-0.61,16.31,4.5,20.29c2.35,1.78,5.05,2.61,7.87,2.61
	c11.29,0,25.11-12.55,29.06-27.29c2.66-9.94,0.79-20.91-9.61-29.7C46.1,76.13,32.32,60.02,37.7,39.95
	c1.32-4.91,3.84-10.04,7.67-15.37C57.84,7.32,77.16,0,93.89,0c19.66,0,35.9,10.04,33.96,26.25c-0.1,1.15-0.41,2.3-0.71,3.45
	c-2.75,10.25-11.54,19.66-20.4,26.56c-2.52,1.99-5.57,2.82-8.5,2.82c-5.86,0-11.1-3.45-9.7-8.68c0.45-1.67,1.68-3.56,3.81-5.65
	c4.63-4.39,8.24-10.46,10.57-16.42c0.3-0.73,0.47-1.36,0.64-1.99c2.35-8.78-3.88-14.01-12.77-14.01c-4.92,0-10.56,1.57-16.09,5.02
	c-8.54,5.33-12.93,11.19-14.47,16.94c-4.12,15.37,11.63,30.74,22.11,38.48c14.5,10.67,22.5,29.59,17.2,49.36
	c-3.7,13.8-13.92,28.13-33.09,40.36c-7.56,4.81-17.17,7.11-26.58,7.11c-20.08,0-39.63-10.14-39.86-26.46
	C-0.08,139.19,0.65,134.9,1.8,130.61z"/>
<path class="st0" d="M172.97,71.32c0.92-3.45,4.22-5.23,7.67-5.23c5.12,0,10.6,3.76,9.62,11.71c-0.63,5.86-2.04,13.07-4.14,20.91
	c-4.93,18.4-13.55,39.63-24.22,51.76c-7.5,8.47-17.31,11.92-26.62,11.92c-11.71,0-22.73-5.33-27.9-12.97
	c-5.58-8.05-5.22-19.56-1.91-31.9c4.43-16.52,14.24-34.4,22.39-47.27c1.64-2.61,4.91-3.87,8.15-3.87c5.54,0,11.1,3.45,9.42,9.73
	c-0.14,0.52-0.41,1.15-0.69,1.78c-5.42,12.03-10.37,21.12-12.89,30.54c-1.51,5.65-2.11,11.4-1.37,17.99
	c1.09,9.2,6.38,14.43,12.45,14.43c4.71,0,9.73-3.14,13.54-9.93c4-7.11,10.68-22.69,14.32-36.29c2.07-7.74,3.14-14.85,2.15-19.35
	C172.64,73.72,172.66,72.47,172.97,71.32z"/>
<path class="st0" d="M232.01,71.84c4.42-2.82,9.14-4.08,13.54-4.08c6.38,0,12.06,2.61,14.83,7.11c5.04,7.74,5.29,20.08,1.95,32.52
	c-3.98,14.85-13.03,29.91-25.23,37.96c-6.72,4.39-17.47,7.84-26.05,7.84c-3.97,0-7.54-0.73-10.02-2.41
	c-0.26-0.21-0.54-0.31-0.86-0.31c-0.73,0-1.29,0.52-1.67,1.57l-0.73,2.72c-4.48,16.73-7.92,42.04-8.19,57.1
	c0.04,0.63-0.13,1.25-0.27,1.78c-1.12,4.18-5.86,5.86-10.98,5.86c-7.01,0-14.74-3.14-14.7-6.8c0.31-17.57,3.21-34.61,7.69-51.35
	c7.9-29.49,20.89-58.46,33.97-89.3c0.79-1.78,2.79-2.61,5.2-2.61c4.81,0,10.92,3.35,11.7,9.41
	C225.69,76.34,228.74,73.93,232.01,71.84z M204.94,125.28c-0.53,1.99-0.75,3.97-0.73,5.86c0.15,6.06,2.67,11.5,8.52,11.5
	c2.61,0,5.82-1.05,9.87-3.66c9.63-6.27,14.85-17.57,17.82-28.65c1.2-4.5,2.07-8.89,2.64-12.97c0.62-3.87-0.52-8.99-4.81-8.99
	c-2.4,0-5.86,1.57-10.56,5.86C218.05,102.9,207.74,114.82,204.94,125.28z"/>
<path class="st0" d="M275.12,145.88c-7.74,0-17.34-3.97-15.41-11.19c0.11-0.42,0.22-0.84,0.47-1.36
	c5.17-11.5,13.33-32.21,17.59-48.1c1.37-5.12,2.42-9.83,2.67-13.49c0.06-0.21,0.01-0.42,0.06-0.63c0.53-1.99,2.64-2.82,5.15-2.82
	c5.02,0,11.86,3.35,12.22,8.26c0.63,11.29-1.39,22.38-4.31,33.25c-2.94,10.98-6.77,21.75-9.65,32.1
	C283.2,144.62,279.41,145.88,275.12,145.88z"/>
<path class="st1" d="M292.8,36.6c1.7-2.82,4.99-4.18,8.23-4.18c4.71,0,9.25,2.93,7.99,7.63c-0.2,0.73-0.6,1.46-1.03,2.3
	c-1.43,2.61-2.73,5.12-3.43,7.74c-0.14,0.52-0.31,1.15-0.34,1.67l-0.17,0.63c-1.04,3.87-5.26,5.96-9.23,5.96
	c-4.81,0-9.12-3.03-7.3-9.83l0.08-0.31C288.77,44.23,290.54,40.37,292.8,36.6z"/>
<path class="st0" d="M325.7,149.54c-10.98,0-21.12-4.29-26.43-11.82c-3.62-5.23-3.83-12.24-1.76-19.97
	c5.58-20.81,27.61-46.85,43.36-57.62c8.39-5.54,16.56-7.95,23.67-7.95c11.71,0,20.4,6.59,22.49,17.15c0.19,0.84,0.18,1.67-0.02,2.4
	c-0.9,3.35-5.06,5.23-8.93,5.23c-3.24,0-6.43-1.36-7.46-4.18c-1.74-4.81-4.61-6.59-7.75-6.59c-4.81,0-10.43,4.18-14.66,8.68
	c-8.27,8.99-19.04,22.27-22.46,35.03c-0.73,2.72-1.14,5.44-1.11,8.05c0.15,7.63,3.73,10.67,8.23,10.67c4.29,0,9.41-2.72,13.12-6.8
	c8.72-9.52,10.82-17.36,16.25-28.65c2.88-6.06,10.14-9.73,15.99-9.73c5.23,0,9.36,2.93,8.32,9.52c-0.44,2.41-0.97,4.81-1.65,7.32
	c-2.49,9.31-6.43,18.93-8.92,28.23c-2.77,10.35-3.66,20.29,1.44,28.97c0.31,0.42,0.38,0.94,0.26,1.36c-0.64,2.41-6.04,4.6-11.9,4.6
	c-0.63,0-1.23-0.11-1.85-0.11c-7.49-0.52-15.02-4.81-14.24-16.73c0.14-1.67-0.61-2.41-1.87-2.41c-0.94,0-2.07,0.31-3.28,0.94
	C338.5,148.18,331.97,149.54,325.7,149.54z"/>
</svg>
